<svg width="19" height="15" viewBox="0 0 19 15" fill="none" xmlns="http://www.w3.org/2000/svg">
<path d="M15.7264 1.89498C14.5756 1.37332 13.3451 0.994197 12.0587 0.77832C11.9007 1.05507 11.7161 1.4273 11.5889 1.7234C10.2213 1.52415 8.86641 1.52415 7.52406 1.7234C7.39682 1.4273 7.20805 1.05507 7.04865 0.77832C5.76083 0.994197 4.52894 1.37471 3.37815 1.89775C1.05701 5.29612 0.427781 8.61008 0.742394 11.877C2.2819 12.9909 3.77387 13.6675 5.24066 14.1103C5.60282 13.6274 5.92582 13.114 6.20407 12.573C5.67412 12.3779 5.16655 12.1371 4.68696 11.8576C4.81419 11.7663 4.93865 11.6708 5.05889 11.5726C7.98408 12.8982 11.1624 12.8982 14.0526 11.5726C14.1743 11.6708 14.2987 11.7663 14.4246 11.8576C13.9436 12.1385 13.4346 12.3793 12.9046 12.5744C13.1829 13.114 13.5045 13.6288 13.8681 14.1117C15.3363 13.6689 16.8296 12.9923 18.3691 11.877C18.7383 8.08981 17.7385 4.80628 15.7264 1.89498ZM6.60259 9.86786C5.72447 9.86786 5.00435 9.07361 5.00435 8.10641C5.00435 7.1392 5.7091 6.34358 6.60259 6.34358C7.4961 6.34358 8.2162 7.13781 8.20083 8.10641C8.20222 9.07361 7.4961 9.86786 6.60259 9.86786ZM12.5089 9.86786C11.6308 9.86786 10.9107 9.07361 10.9107 8.10641C10.9107 7.1392 11.6154 6.34358 12.5089 6.34358C13.4024 6.34358 14.1226 7.13781 14.1072 8.10641C14.1072 9.07361 13.4024 9.86786 12.5089 9.86786Z" fill="white"/>
</svg>
