<svg width="32" height="32" viewBox="0 0 32 32" fill="none" xmlns="http://www.w3.org/2000/svg">
<circle cx="16" cy="16" r="16" fill="#5A6DE2"/>
<path d="M22.1708 10.895C21.02 10.3733 19.7895 9.9942 18.5031 9.77832C18.3451 10.0551 18.1605 10.4273 18.0333 10.7234C16.6658 10.5241 15.3108 10.5241 13.9685 10.7234C13.8412 10.4273 13.6525 10.0551 13.4931 9.77832C12.2053 9.9942 10.9734 10.3747 9.82258 10.8977C7.50143 14.2961 6.87221 17.6101 7.18682 20.877C8.72633 21.9909 10.2183 22.6675 11.6851 23.1103C12.0472 22.6274 12.3702 22.114 12.6485 21.573C12.1186 21.3779 11.611 21.1371 11.1314 20.8576C11.2586 20.7663 11.3831 20.6708 11.5033 20.5726C14.4285 21.8982 17.6068 21.8982 20.4971 20.5726C20.6187 20.6708 20.7431 20.7663 20.869 20.8576C20.388 21.1385 19.879 21.3793 19.3491 21.5744C19.6273 22.114 19.9489 22.6288 20.3125 23.1117C21.7807 22.6689 23.274 21.9923 24.8135 20.877C25.1827 17.0898 24.1829 13.8063 22.1708 10.895ZM13.047 18.8679C12.1689 18.8679 11.4488 18.0736 11.4488 17.1064C11.4488 16.1392 12.1535 15.3436 13.047 15.3436C13.9405 15.3436 14.6606 16.1378 14.6453 17.1064C14.6466 18.0736 13.9405 18.8679 13.047 18.8679ZM18.9534 18.8679C18.0752 18.8679 17.3551 18.0736 17.3551 17.1064C17.3551 16.1392 18.0598 15.3436 18.9534 15.3436C19.8469 15.3436 20.567 16.1378 20.5516 17.1064C20.5516 18.0736 19.8469 18.8679 18.9534 18.8679Z" fill="white"/>
</svg>
