<svg width="17" height="16" viewBox="0 0 17 16" fill="none" xmlns="http://www.w3.org/2000/svg">
<path fill-rule="evenodd" clip-rule="evenodd" d="M8.77828 0C6.60561 0 6.33294 0.00950004 5.4796 0.0483335C4.62793 0.0873336 4.0466 0.222167 3.53793 0.420001C3.01176 0.624336 2.56543 0.89767 2.12076 1.3425C1.67576 1.78717 1.40242 2.23351 1.19742 2.75951C0.999089 3.26834 0.864088 3.84985 0.825755 4.70118C0.787588 5.55452 0.777588 5.82735 0.777588 8.00003C0.777588 10.1727 0.787255 10.4445 0.825921 11.2979C0.865088 12.1495 0.999922 12.7309 1.19759 13.2395C1.40209 13.7657 1.67542 14.212 2.12026 14.6567C2.56476 15.1017 3.0111 15.3757 3.53693 15.5801C4.04593 15.7779 4.62743 15.9127 5.47894 15.9517C6.33227 15.9906 6.60478 16.0001 8.77728 16.0001C10.9501 16.0001 11.222 15.9906 12.0753 15.9517C12.927 15.9127 13.509 15.7779 14.018 15.5801C14.544 15.3757 14.9896 15.1017 15.4341 14.6567C15.8791 14.212 16.1525 13.7657 16.3575 13.2397C16.5541 12.7309 16.6891 12.1494 16.7291 11.298C16.7675 10.4447 16.7775 10.1727 16.7775 8.00003C16.7775 5.82735 16.7675 5.55469 16.7291 4.70135C16.6891 3.84968 16.5541 3.26834 16.3575 2.75968C16.1525 2.23351 15.8791 1.78717 15.4341 1.3425C14.9891 0.897503 14.5441 0.624169 14.0175 0.420001C13.5075 0.222167 12.9258 0.0873336 12.0741 0.0483335C11.2208 0.00950004 10.9491 0 8.77578 0H8.77828ZM8.06063 1.44139C8.27363 1.44106 8.5113 1.44139 8.7783 1.44139C10.9143 1.44139 11.1675 1.44906 12.011 1.48739C12.791 1.52306 13.2143 1.65339 13.4963 1.7629C13.8696 1.9079 14.1358 2.08123 14.4157 2.36123C14.6957 2.64123 14.869 2.9079 15.0143 3.28123C15.1238 3.5629 15.2543 3.98624 15.2898 4.76624C15.3282 5.60958 15.3365 5.86291 15.3365 7.99792C15.3365 10.1329 15.3282 10.3863 15.2898 11.2296C15.2542 12.0096 15.1238 12.4329 15.0143 12.7146C14.8693 13.0879 14.6957 13.3538 14.4157 13.6336C14.1356 13.9136 13.8698 14.0869 13.4963 14.2319C13.2146 14.3419 12.791 14.4719 12.011 14.5076C11.1676 14.5459 10.9143 14.5543 8.7783 14.5543C6.64212 14.5543 6.38896 14.5459 5.54562 14.5076C4.76562 14.4716 4.34228 14.3413 4.06011 14.2318C3.68678 14.0868 3.42011 13.9134 3.14011 13.6334C2.86011 13.3534 2.68678 13.0874 2.54144 12.7139C2.43194 12.4323 2.30144 12.0089 2.26594 11.2289C2.22761 10.3856 2.21994 10.1323 2.21994 7.99592C2.21994 5.85958 2.22761 5.60758 2.26594 4.76424C2.30161 3.98424 2.43194 3.5609 2.54144 3.2789C2.68644 2.90557 2.86011 2.6389 3.14011 2.3589C3.42011 2.0789 3.68678 1.90556 4.06011 1.76023C4.34212 1.65023 4.76562 1.52023 5.54562 1.48439C6.28362 1.45106 6.56962 1.44106 8.06063 1.43939V1.44139ZM13.0493 2.76927C12.5193 2.76927 12.0893 3.19877 12.0893 3.72894C12.0893 4.25894 12.5193 4.68895 13.0493 4.68895C13.5793 4.68895 14.0093 4.25894 14.0093 3.72894C14.0093 3.19894 13.5793 2.76894 13.0493 2.76894V2.76927ZM8.77905 3.89205C6.51021 3.89205 4.6707 5.73155 4.6707 8.00039C4.6707 10.2692 6.51021 12.1079 8.77905 12.1079C11.0479 12.1079 12.8867 10.2692 12.8867 8.00039C12.8867 5.73155 11.0477 3.89205 8.77888 3.89205H8.77905ZM8.77866 5.33333C10.2513 5.33333 11.4453 6.52717 11.4453 8.00001C11.4453 9.47268 10.2513 10.6667 8.77866 10.6667C7.30582 10.6667 6.11199 9.47268 6.11199 8.00001C6.11199 6.52717 7.30582 5.33333 8.77866 5.33333Z" fill="white"/>
</svg>
