<svg width="42" height="38" viewBox="0 0 42 38" fill="none" xmlns="http://www.w3.org/2000/svg">
<g clip-path="url(#clip0)">
<path d="M39.923 0L23.5156 11.7217L26.5667 4.81371L39.923 0Z" fill="#E17726" stroke="#E17726" stroke-width="0.25" stroke-linecap="round" stroke-linejoin="round"/>
<path d="M2.07812 0L18.3394 11.8311L15.4345 4.8137L2.07812 0Z" fill="#E27625" stroke="#E27625" stroke-width="0.25" stroke-linecap="round" stroke-linejoin="round"/>
<path d="M34.0159 27.1787L29.6504 33.6178L38.9982 36.1029L41.676 27.3195L34.0159 27.1787Z" fill="#E27625" stroke="#E27625" stroke-width="0.25" stroke-linecap="round" stroke-linejoin="round"/>
<path d="M0.339844 27.3195L3.00135 36.1029L12.3329 33.6178L7.98359 27.1787L0.339844 27.3195Z" fill="#E27625" stroke="#E27625" stroke-width="0.25" stroke-linecap="round" stroke-linejoin="round"/>
<path d="M11.8309 16.3011L9.23438 20.0833L18.4848 20.4897L18.1765 10.8779L11.8309 16.3011Z" fill="#E27625" stroke="#E27625" stroke-width="0.25" stroke-linecap="round" stroke-linejoin="round"/>
<path d="M30.1693 16.3012L23.7266 10.7686L23.5156 20.4897L32.766 20.0834L30.1693 16.3012Z" fill="#E27625" stroke="#E27625" stroke-width="0.25" stroke-linecap="round" stroke-linejoin="round"/>
<path d="M12.334 33.6177L17.9328 31.0077L13.113 27.3818L12.334 33.6177Z" fill="#E27625" stroke="#E27625" stroke-width="0.25" stroke-linecap="round" stroke-linejoin="round"/>
<path d="M24.0664 31.0077L29.649 33.6177L28.8863 27.3818L24.0664 31.0077Z" fill="#E27625" stroke="#E27625" stroke-width="0.25" stroke-linecap="round" stroke-linejoin="round"/>
<path d="M29.649 33.6178L24.0664 31.0078L24.5207 34.5086L24.472 35.9934L29.649 33.6178Z" fill="#D5BFB2" stroke="#D5BFB2" stroke-width="0.25" stroke-linecap="round" stroke-linejoin="round"/>
<path d="M12.334 33.6178L17.5272 35.9934L17.4947 34.5086L17.9328 31.0078L12.334 33.6178Z" fill="#D5BFB2" stroke="#D5BFB2" stroke-width="0.25" stroke-linecap="round" stroke-linejoin="round"/>
<path d="M17.6239 25.069L12.9824 23.7563L16.2606 22.3027L17.6239 25.069Z" fill="#233447" stroke="#233447" stroke-width="0.25" stroke-linecap="round" stroke-linejoin="round"/>
<path d="M24.375 25.069L25.7383 22.3027L29.0327 23.7563L24.375 25.069Z" fill="#233447" stroke="#233447" stroke-width="0.25" stroke-linecap="round" stroke-linejoin="round"/>
<path d="M12.3336 33.6178L13.1451 27.1787L7.98438 27.3195L12.3336 33.6178Z" fill="#CC6228" stroke="#CC6228" stroke-width="0.25" stroke-linecap="round" stroke-linejoin="round"/>
<path d="M28.8555 27.1787L29.6507 33.6178L34.0162 27.3195L28.8555 27.1787Z" fill="#CC6228" stroke="#CC6228" stroke-width="0.25" stroke-linecap="round" stroke-linejoin="round"/>
<path d="M32.766 20.083L23.5156 20.4894L24.3757 25.0687L25.739 22.3023L29.0334 23.7558L32.766 20.083Z" fill="#CC6228" stroke="#CC6228" stroke-width="0.25" stroke-linecap="round" stroke-linejoin="round"/>
<path d="M12.9832 23.7558L16.2614 22.3023L17.6247 25.0687L18.4848 20.4894L9.23438 20.083L12.9832 23.7558Z" fill="#CC6228" stroke="#CC6228" stroke-width="0.25" stroke-linecap="round" stroke-linejoin="round"/>
<path d="M9.23438 20.083L13.1131 27.3818L12.9832 23.7558L9.23438 20.083Z" fill="#E27525" stroke="#E27525" stroke-width="0.25" stroke-linecap="round" stroke-linejoin="round"/>
<path d="M29.0328 23.7558L28.8867 27.3818L32.7654 20.083L29.0328 23.7558Z" fill="#E27525" stroke="#E27525" stroke-width="0.25" stroke-linecap="round" stroke-linejoin="round"/>
<path d="M18.4852 20.4893L17.625 25.0686L18.7123 30.4761L18.9558 23.3494L18.4852 20.4893Z" fill="#E27525" stroke="#E27525" stroke-width="0.25" stroke-linecap="round" stroke-linejoin="round"/>
<path d="M23.515 20.4893L23.0605 23.3338L23.2878 30.4761L24.3751 25.0686L23.515 20.4893Z" fill="#E27525" stroke="#E27525" stroke-width="0.25" stroke-linecap="round" stroke-linejoin="round"/>
<path d="M24.3764 25.0687L23.2891 30.4763L24.0681 31.0077L28.8881 27.3818L29.0341 23.7559L24.3764 25.0687Z" fill="#F5841F" stroke="#F5841F" stroke-width="0.25" stroke-linecap="round" stroke-linejoin="round"/>
<path d="M12.9824 23.7559L13.1123 27.3818L17.9322 31.0077L18.7112 30.4763L17.6239 25.0687L12.9824 23.7559Z" fill="#F5841F" stroke="#F5841F" stroke-width="0.25" stroke-linecap="round" stroke-linejoin="round"/>
<path d="M24.4731 35.9938L24.5217 34.509L24.0999 34.1652H17.9005L17.4947 34.509L17.5272 35.9938L12.334 33.6182L14.1516 35.056L17.8355 37.5098H24.1484L27.8486 35.056L29.65 33.6182L24.4731 35.9938Z" fill="#C0AC9D" stroke="#C0AC9D" stroke-width="0.25" stroke-linecap="round" stroke-linejoin="round"/>
<path d="M24.0668 31.0079L23.2878 30.4766H18.7113L17.9324 31.0079L17.4941 34.5088L17.8999 34.165H24.0992L24.5212 34.5088L24.0668 31.0079Z" fill="#161616" stroke="#161616" stroke-width="0.25" stroke-linecap="round" stroke-linejoin="round"/>
<path d="M40.6196 12.4875L41.9992 6.01713L39.9218 0L24.0664 11.331L30.1683 16.3009L38.7858 18.7235L40.6846 16.5823L39.857 16.004L41.1714 14.8475L40.1653 14.0973L41.4799 13.1283L40.6196 12.4875Z" fill="#763E1A" stroke="#763E1A" stroke-width="0.25" stroke-linecap="round" stroke-linejoin="round"/>
<path d="M0 6.01713L1.39567 12.4875L0.503097 13.1283L1.83385 14.0973L0.827668 14.8475L2.14219 16.004L1.31453 16.5823L3.2133 18.7235L11.8308 16.3009L17.9328 11.331L2.07728 0L0 6.01713Z" fill="#763E1A" stroke="#763E1A" stroke-width="0.25" stroke-linecap="round" stroke-linejoin="round"/>
<path d="M38.7863 18.7232L30.1688 16.3008L32.7654 20.083L28.8867 27.3816L34.015 27.3192H41.6749L38.7863 18.7232Z" fill="#F5841F" stroke="#F5841F" stroke-width="0.25" stroke-linecap="round" stroke-linejoin="round"/>
<path d="M11.8298 16.3008L3.21233 18.7232L0.339844 27.3192H7.98359L13.1118 27.3816L9.2332 20.083L11.8298 16.3008Z" fill="#F5841F" stroke="#F5841F" stroke-width="0.25" stroke-linecap="round" stroke-linejoin="round"/>
<path d="M23.5155 20.4894L24.0673 11.3307L26.5665 4.81348H15.4336L17.9328 11.3307L18.4846 20.4894L18.6955 23.3651L18.7118 30.4763H23.2883L23.3045 23.3651L23.5155 20.4894Z" fill="#F5841F" stroke="#F5841F" stroke-width="0.25" stroke-linecap="round" stroke-linejoin="round"/>
</g>
<defs>
<clipPath id="clip0">
<rect width="42" height="37.5094" fill="white"/>
</clipPath>
</defs>
</svg>
