<svg width="76" height="18" viewBox="0 0 76 18" fill="none" xmlns="http://www.w3.org/2000/svg">
<g filter="url(#filter0_i_6:612)">
<path d="M16.7153 18L16.6651 8.69176L12.149 16.2688H9.94109L5.45005 8.94266V18H0.858658V0.437287H4.94826L11.1203 10.5735L17.1418 0.437287H21.2314L21.2816 18H16.7153ZM38.897 14.1613V18H24.7967V0.437287H38.5709V4.27599H29.7142V7.23657H37.5171V10.9498H29.7142V14.1613H38.897ZM45.3921 4.37635H39.9978V0.437287H55.729V4.37635H50.3598V18H45.3921V4.37635ZM68.4647 14.5878H61.0382L59.6582 18H54.5902L62.3428 0.437287H67.2353L75.0131 18H69.8446L68.4647 14.5878ZM67.0095 10.9247L64.7514 5.30467L62.4934 10.9247H67.0095Z" fill="black"/>
</g>
<path d="M16.7153 18L15.955 18.0041L15.9591 18.7603H16.7153V18ZM16.6651 8.69176L17.4254 8.68766L17.4106 5.9559L16.012 8.30251L16.6651 8.69176ZM12.149 16.2688V17.0291H12.5809L12.8021 16.6581L12.149 16.2688ZM9.9411 16.2688L9.29291 16.6662L9.51538 17.0291H9.9411V16.2688ZM5.45004 8.94266L6.09824 8.54531L4.68976 6.24767V8.94266H5.45004ZM5.45004 18V18.7603H6.21036V18H5.45004ZM0.858643 18H0.0983582V18.7603H0.858643V18ZM0.858643 0.437287V-0.323003H0.0983582V0.437287H0.858643ZM4.94827 0.437287L5.59763 0.0418744L5.37546 -0.323003H4.94827V0.437287ZM11.1203 10.5735L10.4709 10.9689L11.1284 12.0486L11.774 10.9618L11.1203 10.5735ZM17.1418 0.437287V-0.323003H16.7091L16.4882 0.0489798L17.1418 0.437287ZM21.2314 0.437287L21.9917 0.435115L21.9895 -0.323003H21.2314V0.437287ZM21.2816 18V18.7603H22.044L22.0419 17.9978L21.2816 18ZM17.4756 17.9959L17.4254 8.68766L15.9048 8.69586L15.955 18.0041L17.4756 17.9959ZM16.012 8.30251L11.4959 15.8796L12.8021 16.6581L17.3182 9.08102L16.012 8.30251ZM12.149 15.5085H9.9411V17.0291H12.149V15.5085ZM10.5893 15.8715L6.09824 8.54531L4.80185 9.34001L9.29291 16.6662L10.5893 15.8715ZM4.68976 8.94266V18H6.21036V8.94266H4.68976ZM5.45004 17.2397H0.858643V18.7603H5.45004V17.2397ZM1.61896 18V0.437287H0.0983582V18H1.61896ZM0.858643 1.19758H4.94827V-0.323003H0.858643V1.19758ZM4.29889 0.8327L10.4709 10.9689L11.7697 10.1781L5.59763 0.0418744L4.29889 0.8327ZM11.774 10.9618L17.7954 0.825594L16.4882 0.0489798L10.4666 10.1852L11.774 10.9618ZM17.1418 1.19758H21.2314V-0.323003H17.1418V1.19758ZM20.4711 0.439459L20.5213 18.0022L22.0419 17.9978L21.9917 0.435115L20.4711 0.439459ZM21.2816 17.2397H16.7153V18.7603H21.2816V17.2397ZM38.897 14.1613H39.6573V13.401H38.897V14.1613ZM38.897 18V18.7603H39.6573V18H38.897ZM24.7967 18H24.0364V18.7603H24.7967V18ZM24.7967 0.437287V-0.323003H24.0364V0.437287H24.7967ZM38.5709 0.437287H39.3311V-0.323003H38.5709V0.437287ZM38.5709 4.27599V5.03628H39.3311V4.27599H38.5709ZM29.7142 4.27599V3.5157H28.9539V4.27599H29.7142ZM29.7142 7.23657H28.9539V7.99686H29.7142V7.23657ZM37.5171 7.23657H38.2774V6.47628H37.5171V7.23657ZM37.5171 10.9498V11.7101H38.2774V10.9498H37.5171ZM29.7142 10.9498V10.1895H28.9539V10.9498H29.7142ZM29.7142 14.1613H28.9539V14.9216H29.7142V14.1613ZM38.1367 14.1613V18H39.6573V14.1613H38.1367ZM38.897 17.2397H24.7967V18.7603H38.897V17.2397ZM25.557 18V0.437287H24.0364V18H25.557ZM24.7967 1.19758H38.5709V-0.323003H24.7967V1.19758ZM37.8106 0.437287V4.27599H39.3311V0.437287H37.8106ZM38.5709 3.5157H29.7142V5.03628H38.5709V3.5157ZM28.9539 4.27599V7.23657H30.4745V4.27599H28.9539ZM29.7142 7.99686H37.5171V6.47628H29.7142V7.99686ZM36.7568 7.23657V10.9498H38.2774V7.23657H36.7568ZM37.5171 10.1895H29.7142V11.7101H37.5171V10.1895ZM28.9539 10.9498V14.1613H30.4745V10.9498H28.9539ZM29.7142 14.9216H38.897V13.401H29.7142V14.9216ZM45.3921 4.37635H46.1524V3.61606H45.3921V4.37635ZM39.9978 4.37635H39.2375V5.13664H39.9978V4.37635ZM39.9978 0.437287V-0.323003H39.2375V0.437287H39.9978ZM55.729 0.437287H56.4893V-0.323003H55.729V0.437287ZM55.729 4.37635V5.13664H56.4893V4.37635H55.729ZM50.3598 4.37635V3.61606H49.5995V4.37635H50.3598ZM50.3598 18V18.7603H51.1201V18H50.3598ZM45.3921 18H44.6318V18.7603H45.3921V18ZM45.3921 3.61606H39.9978V5.13664H45.3921V3.61606ZM40.7581 4.37635V0.437287H39.2375V4.37635H40.7581ZM39.9978 1.19758H55.729V-0.323003H39.9978V1.19758ZM54.9687 0.437287V4.37635H56.4893V0.437287H54.9687ZM55.729 3.61606H50.3598V5.13664H55.729V3.61606ZM49.5995 4.37635V18H51.1201V4.37635H49.5995ZM50.3598 17.2397H45.3921V18.7603H50.3598V17.2397ZM46.1524 18V4.37635H44.6318V18H46.1524ZM68.4647 14.5878L69.1695 14.3028L68.9773 13.8275H68.4647V14.5878ZM61.0382 14.5878V13.8275H60.5255L60.3333 14.3028L61.0382 14.5878ZM59.6583 18V18.7603H60.1709L60.3631 18.285L59.6583 18ZM54.5901 18L53.8946 17.693L53.4235 18.7603H54.5901V18ZM62.3428 0.437287V-0.323003H61.8474L61.6473 0.130256L62.3428 0.437287ZM67.2353 0.437287L67.9305 0.129426L67.7301 -0.323003H67.2353V0.437287ZM75.0131 18V18.7603H76.1813L75.7083 17.6921L75.0131 18ZM69.8446 18L69.1398 18.285L69.332 18.7603H69.8446V18ZM67.0095 10.9247V11.685H68.1343L67.715 10.6413L67.0095 10.9247ZM64.7514 5.30467L65.4569 5.02122L64.7514 3.26536L64.046 5.02122L64.7514 5.30467ZM62.4934 10.9247L61.7879 10.6413L61.3685 11.685H62.4934V10.9247ZM68.4647 13.8275H61.0382V15.3481H68.4647V13.8275ZM60.3333 14.3028L58.9534 17.715L60.3631 18.285L61.743 14.8729L60.3333 14.3028ZM59.6583 17.2397H54.5901V18.7603H59.6583V17.2397ZM55.2857 18.307L63.0384 0.744318L61.6473 0.130256L53.8946 17.693L55.2857 18.307ZM62.3428 1.19758H67.2353V-0.323003H62.3428V1.19758ZM66.5401 0.745149L74.3179 18.3079L75.7083 17.6921L67.9305 0.129426L66.5401 0.745149ZM75.0131 17.2397H69.8446V18.7603H75.0131V17.2397ZM70.5495 17.715L69.1695 14.3028L67.7599 14.8729L69.1398 18.285L70.5495 17.715ZM67.715 10.6413L65.4569 5.02122L64.046 5.58812L66.304 11.2082L67.715 10.6413ZM64.046 5.02122L61.7879 10.6413L63.1989 11.2082L65.4569 5.58812L64.046 5.02122ZM62.4934 11.685H67.0095V10.1644H62.4934V11.685Z" fill="#FF6363"/>
<defs>
<filter id="filter0_i_6:612" x="0.858643" y="0.437286" width="74.1545" height="19.0833" filterUnits="userSpaceOnUse" color-interpolation-filters="sRGB">
<feFlood flood-opacity="0" result="BackgroundImageFix"/>
<feBlend mode="normal" in="SourceGraphic" in2="BackgroundImageFix" result="shape"/>
<feColorMatrix in="SourceAlpha" type="matrix" values="0 0 0 0 0 0 0 0 0 0 0 0 0 0 0 0 0 0 127 0" result="hardAlpha"/>
<feMorphology radius="3.80145" operator="erode" in="SourceAlpha" result="effect1_innerShadow_6:612"/>
<feOffset dy="1.52058"/>
<feGaussianBlur stdDeviation="4.56174"/>
<feComposite in2="hardAlpha" operator="arithmetic" k2="-1" k3="1"/>
<feColorMatrix type="matrix" values="0 0 0 0 1 0 0 0 0 0.0862745 0 0 0 0 0.0862745 0 0 0 1 0"/>
<feBlend mode="normal" in2="shape" result="effect1_innerShadow_6:612"/>
</filter>
</defs>
</svg>
