<svg width="12" height="10" viewBox="0 0 12 10" fill="none" xmlns="http://www.w3.org/2000/svg">
<path d="M11.8659 0.200431C11.3552 0.560686 10.7897 0.836223 10.1912 1.01643C9.87003 0.647104 9.44314 0.385334 8.96832 0.266525C8.49349 0.147717 7.99363 0.177602 7.53634 0.35214C7.07906 0.526677 6.6864 0.837445 6.41149 1.24241C6.13658 1.64738 5.99267 2.12701 5.99923 2.61643V3.14976C5.06197 3.17407 4.13325 2.9662 3.29577 2.54467C2.4583 2.12314 1.73807 1.50104 1.19923 0.733765C1.19923 0.733765 -0.934098 5.53376 3.8659 7.6671C2.76752 8.41268 1.45905 8.78653 0.132568 8.73376C4.93257 11.4004 10.7992 8.73376 10.7992 2.60043C10.7987 2.45187 10.7845 2.30368 10.7566 2.15776C11.3009 1.62096 11.685 0.943212 11.8659 0.200431Z" fill="white"/>
</svg>
