<?xml version="1.0" standalone="no"?>
<!DOCTYPE svg PUBLIC "-//W3C//DTD SVG 20010904//EN"
 "http://www.w3.org/TR/2001/REC-SVG-20010904/DTD/svg10.dtd">
<svg version="1.0" xmlns="http://www.w3.org/2000/svg"
 width="274.000000pt" height="274.000000pt" viewBox="0 0 274.000000 274.000000"
 preserveAspectRatio="xMidYMid meet">
<metadata>
Created by potrace 1.14, written by Peter Selinger 2001-2017
</metadata>
<g transform="translate(0.000000,274.000000) scale(0.100000,-0.100000)"
fill="#000000" stroke="none">
<path d="M1140 2460 l0 -80 -80 0 c-77 0 -80 -1 -86 -26 -4 -14 -4 -45 -2 -69
3 -24 2 -48 -1 -54 -4 -5 -40 -11 -81 -13 l-75 -3 -3 -162 -2 -163 -80 0 -80
0 0 -80 0 -79 -82 -3 -83 -3 -3 -157 c-3 -181 -9 -172 103 -166 l60 3 3 163 2
162 80 0 80 0 0 80 0 80 74 0 c41 0 77 4 81 10 3 5 6 79 6 164 l-1 155 83 3
82 3 3 78 3 77 239 0 239 0 3 -77 3 -78 78 -3 77 -3 0 81 0 80 -75 0 c-85 0
-78 -9 -79 100 l-1 55 -242 3 -243 2 0 -80z"/>
<path d="M1795 2208 c-3 -8 -4 -81 -3 -163 l3 -150 75 0 75 0 0 160 0 160 -73
3 c-53 2 -74 -1 -77 -10z"/>
<path d="M1954 1876 c-3 -7 -4 -42 -2 -77 l3 -64 78 -3 77 -3 0 81 0 80 -75 0
c-54 0 -77 -4 -81 -14z"/>
<path d="M1300 1570 l0 -160 80 0 79 0 3 -87 3 -88 78 -3 77 -3 0 -234 0 -235
-73 0 c-43 0 -78 -5 -85 -12 -7 -7 -12 -41 -12 -85 l0 -72 -77 -3 -78 -3 -3
-78 -3 -77 -42 0 c-23 0 -92 3 -154 7 l-112 6 -4 66 -3 66 -2 -67 -2 -68 -80
0 -79 0 -4 73 -3 72 -2 -72 -2 -73 -75 0 -75 0 0 75 0 75 -85 0 -85 0 0 80 0
80 -80 0 -81 0 3 -77 3 -78 77 -3 77 -3 3 -77 3 -77 82 -3 82 -3 3 -82 3 -82
205 -3 c113 -1 255 1 315 5 l110 8 3 66 3 66 62 -1 c45 -1 69 4 90 18 25 17
27 23 27 87 l0 69 75 0 75 0 0 85 0 85 85 0 85 0 0 245 0 244 -82 3 -83 3 -3
83 -3 82 -79 0 -80 0 0 160 0 160 -80 0 -80 0 0 -160z"/>
<path d="M2120 1711 c-5 -11 -9 -79 -7 -163 l2 -143 76 -3 76 -3 5 50 c8 80 0
109 -31 114 l-26 4 27 2 c21 1 28 7 33 31 8 37 -3 112 -19 122 -6 4 -37 8 -68
8 -46 0 -59 -4 -68 -19z"/>
<path d="M327 1393 c-4 -3 -7 -39 -7 -80 l0 -73 80 0 80 0 0 80 0 80 -73 0
c-41 0 -77 -3 -80 -7z"/>
<path d="M2293 1394 c-9 -4 -13 -31 -13 -85 l0 -79 80 0 80 0 0 -70 0 -69 -77
-4 -78 -3 78 -2 77 -2 0 -80 0 -79 -77 -4 -78 -3 77 -2 77 -2 3 -77 3 -78 75
3 c41 2 78 7 82 10 4 4 4 111 0 237 l-7 230 -77 3 -77 3 -3 77 -3 77 -65 2
c-36 1 -71 -1 -77 -3z"/>
<path d="M166 1232 c-6 -11 -10 -461 -3 -468 10 -10 72 -15 115 -9 l42 6 -2
237 -3 237 -72 3 c-39 2 -74 -1 -77 -6z"/>
<path d="M2292 737 c-17 -18 -22 -35 -22 -75 0 -63 13 -72 105 -72 l66 0 -3
83 -3 82 -60 3 c-53 2 -64 0 -83 -21z"/>
<path d="M2167 743 c18 -2 50 -2 70 0 21 2 7 4 -32 4 -38 0 -55 -2 -38 -4z"/>
<path d="M2110 515 c0 -86 3 -89 101 -83 l54 3 3 78 3 77 -81 0 -80 0 0 -75z"/>
<path d="M1563 433 c-94 -4 -91 -1 -95 -103 l-3 -55 95 -6 c52 -4 197 -7 321
-8 260 -1 237 -12 231 106 l-4 72 -231 -1 c-128 -1 -269 -4 -314 -5z"/>
</g>
</svg>
